<svg id="Слой_1" data-name="Слой 1" xmlns="http://www.w3.org/2000/svg" viewBox="0 0 81.19945 80.68133">
  <defs>
    <style>
      .cls-1 {
        fill: #2e4053;
      }

      .cls-2 {
        fill: #fff;
      }
    </style>
  </defs>
  <g>
    <rect class="cls-1" width="81.19945" height="80.68133"/>
    <path class="cls-2" d="M40.59822,76.33916a36,36,0,1,1,36-36A36,36,0,0,1,40.59822,76.33916Zm30.44653-38.348A30.53812,30.53812,0,0,0,42.83229,9.88641l-2.23412,5.403-2.234-5.403A30.53816,30.53816,0,0,0,10.15169,37.9912l5.47916,2.26554L10.13919,42.5275A30.5382,30.5382,0,0,0,38.296,70.79192l2.30218-5.56781,2.30224,5.56781A30.53819,30.53819,0,0,0,71.05725,42.5275L65.5656,40.25679Z"/>
    <path class="cls-2" d="M55.12183,25.81556,34.89311,34.63405M26.07462,54.86277l20.22871-8.8185m0,0,8.8185-20.22871L34.89311,34.63405,26.07462,54.86277ZM43.29808,43.039a3.81818,3.81818,0,1,1,0-5.39973A3.81818,3.81818,0,0,1,43.29808,43.039Z"/>
  </g>
</svg>
