<svg id="Слой_1" data-name="Слой 1" xmlns="http://www.w3.org/2000/svg" viewBox="0 0 199.3805 48">
  <defs>
    <style>
      .cls-1 {
        fill: #fff;
      }
    </style>
  </defs>
  <g>
    <g>
      <path class="cls-1" d="M24,48A24,24,0,1,1,48,24,24,24,0,0,1,24,48ZM44.29769,22.43469A20.35877,20.35877,0,0,0,25.48938,3.69816L24,7.30013l-1.48935-3.602A20.35879,20.35879,0,0,0,3.70231,22.43469L7.35508,23.945,3.694,25.45889a20.3588,20.3588,0,0,0,18.7712,18.84295L24,40.59l1.53482,3.71187A20.3588,20.3588,0,0,0,44.306,25.45889l-3.6611-1.51381Z"/>
      <path class="cls-1" d="M33.6824,14.3176l-13.48581,5.879M14.3176,33.6824l13.48581-5.879m0,0,5.879-13.48581-13.48581,5.879L14.3176,33.6824Zm-2.0035-2.0035a2.54546,2.54546,0,1,1,0-3.59982A2.54546,2.54546,0,0,1,25.79991,25.79991Z"/>
    </g>
    <g>
      <path class="cls-1" d="M55.28285,15.8497H60.983a8.33871,8.33871,0,0,1,3.91992.88965,6.498,6.498,0,0,1,2.63965,2.48047A6.99185,6.99185,0,0,1,68.483,22.8497a6.99186,6.99186,0,0,1-.94043,3.62989A6.4981,6.4981,0,0,1,64.903,28.96006a8.33871,8.33871,0,0,1-3.91992.88964H55.28285ZM60.903,28.56943a6.79134,6.79134,0,0,0,3.21973-.72949,5.3,5.3,0,0,0,2.13965-2.02051,5.736,5.736,0,0,0,.75976-2.96973A5.736,5.736,0,0,0,66.26234,19.88a5.30644,5.30644,0,0,0-2.13965-2.02051A6.79134,6.79134,0,0,0,60.903,17.13H56.76234V28.56943Z"/>
      <path class="cls-1" d="M74.57288,19.79013a5.05958,5.05958,0,0,1,2.4502-.54V20.63l-.33984-.02051A3.35852,3.35852,0,0,0,74.08265,21.63a4.06011,4.06011,0,0,0-.93945,2.85937V29.8497H71.72327V19.33017h1.35938v2.05957A3.43359,3.43359,0,0,1,74.57288,19.79013Z"/>
      <path class="cls-1" d="M88.86195,25.02939H80.06214a3.76,3.76,0,0,0,1.25977,2.65039,4.18321,4.18321,0,0,0,2.88086,1.00977,4.54,4.54,0,0,0,1.7998-.34961,3.94561,3.94561,0,0,0,1.41992-1.03027l.79981.91992a4.496,4.496,0,0,1-1.75,1.28027,5.92415,5.92415,0,0,1-2.30957.43945,5.84007,5.84007,0,0,1-2.87012-.68945,4.97087,4.97087,0,0,1-1.95019-1.91016,5.4444,5.4444,0,0,1-.7002-2.75976,5.63965,5.63965,0,0,1,.66992-2.75977A4.85214,4.85214,0,0,1,81.152,19.92978a5.141,5.141,0,0,1,2.62988-.67968,5.08517,5.08517,0,0,1,2.62012.67968,4.82145,4.82145,0,0,1,1.82031,1.88965,5.6907,5.6907,0,0,1,.66015,2.77051Zm-7.62989-3.58984a3.81463,3.81463,0,0,0-1.16992,2.53027h7.46a3.81016,3.81016,0,0,0-1.16992-2.53027,3.86407,3.86407,0,0,0-5.12012,0Z"/>
      <path class="cls-1" d="M98.54261,20.27939a3.98656,3.98656,0,0,1,1.09961,3.05078V29.8497H98.28187V28.21006a3.2521,3.2521,0,0,1-1.40918,1.27929,4.9245,4.9245,0,0,1-2.21.46,4.32563,4.32563,0,0,1-2.80078-.83984,2.88884,2.88884,0,0,1-.06934-4.37988,4.74334,4.74334,0,0,1,3.08984-.82032H98.2223v-.63964a2.70053,2.70053,0,0,0-.75977-2.07032,3.14321,3.14321,0,0,0-2.2207-.71,5.6522,5.6522,0,0,0-1.91992.33008,4.85563,4.85563,0,0,0-1.58008.91016L91.10218,20.67a5.68153,5.68153,0,0,1,1.91992-1.05078,7.49241,7.49241,0,0,1,2.36035-.36914A4.45491,4.45491,0,0,1,98.54261,20.27939Zm-1.60059,8a3.28406,3.28406,0,0,0,1.28028-1.58984V24.96982H94.92249q-2.6997,0-2.70019,1.87988a1.72062,1.72062,0,0,0,.70019,1.4502,3.18583,3.18583,0,0,0,1.96.53027A3.73694,3.73694,0,0,0,96.942,28.27939Z"/>
      <path class="cls-1" d="M119.95179,20.38974a4.582,4.582,0,0,1,1.12988,3.36036v6.0996h-1.41992v-5.96a3.57337,3.57337,0,0,0-.79-2.5,2.87509,2.87509,0,0,0-2.22949-.86035,3.34921,3.34921,0,0,0-2.58008,1.01074,3.93292,3.93292,0,0,0-.94043,2.79V29.8497h-1.41992v-5.96a3.57337,3.57337,0,0,0-.79-2.5,2.90158,2.90158,0,0,0-2.25-.86035,3.359,3.359,0,0,0-2.57031,1.01074,3.91039,3.91039,0,0,0-.94922,2.79V29.8497H103.7223V19.33017h1.35937V21.2501a3.78943,3.78943,0,0,1,1.56055-1.48047,4.90952,4.90952,0,0,1,2.2998-.51953,4.50655,4.50655,0,0,1,2.29.55957,3.44469,3.44469,0,0,1,1.4502,1.66015,4.08864,4.08864,0,0,1,1.66992-1.62988,5.14325,5.14325,0,0,1,2.48926-.58984A4.18211,4.18211,0,0,1,119.95179,20.38974Z"/>
      <path class="cls-1" d="M137.862,15.8497l-6.09961,14h-2.56055l-6.11914-14H125.902l4.66015,10.79981,4.7002-10.79981Z"/>
      <path class="cls-1" d="M140.401,29.29013a5.10641,5.10641,0,0,1-2.0293-1.95019,5.82864,5.82864,0,0,1,0-5.65039,5.12667,5.12667,0,0,1,2.0293-1.93945,6.4811,6.4811,0,0,1,5.86035,0,5.1356,5.1356,0,0,1,2.03027,1.93945,5.83542,5.83542,0,0,1,0,5.65039,5.11522,5.11522,0,0,1-2.03027,1.95019,6.4892,6.4892,0,0,1-5.86035,0Zm5.20019-2.36035a3.30992,3.30992,0,0,0,.9004-2.41992,3.30992,3.30992,0,0,0-.9004-2.41992,3.0525,3.0525,0,0,0-2.27929-.91992,3.02082,3.02082,0,0,0-2.27051.91992,3.33124,3.33124,0,0,0-.88965,2.41992,3.33124,3.33124,0,0,0,.88965,2.41992,3.02082,3.02082,0,0,0,2.27051.91992A3.0525,3.0525,0,0,0,145.6012,26.92978Z"/>
      <path class="cls-1" d="M161.34144,19.17l-5,11.54a5.37483,5.37483,0,0,1-1.69922,2.44921,4.07157,4.07157,0,0,1-2.4209.71,4.94579,4.94579,0,0,1-1.5791-.25977,3.47907,3.47907,0,0,1-1.28027-.71973l1-1.83984a2.73823,2.73823,0,0,0,.84961.54,2.61435,2.61435,0,0,0,.99023.20019,1.70384,1.70384,0,0,0,1.08984-.34082,3.00261,3.00261,0,0,0,.79-1.13964l.17969-.41993L149.60218,19.17h2.59961l3.36035,7.89941L158.942,19.17Z"/>
      <path class="cls-1" d="M170.47132,20.17978a4.36814,4.36814,0,0,1,1.25,3.41016V29.8497H169.361V28.5499a2.903,2.903,0,0,1-1.30957,1.06934,5.1158,5.1158,0,0,1-2.0498.37011,5.03853,5.03853,0,0,1-2.10059-.40918,3.24049,3.24049,0,0,1-1.38965-1.14062,2.887,2.887,0,0,1-.49023-1.64942,2.82788,2.82788,0,0,1,1.07031-2.31054,5.31125,5.31125,0,0,1,3.37012-.87012h2.75976v-.16016a2.19087,2.19087,0,0,0-.66992-1.71972,2.90351,2.90351,0,0,0-1.99023-.59961,5.747,5.747,0,0,0-1.76954.27929,4.37559,4.37559,0,0,0-1.4707.78028l-.97949-1.82031a6.08119,6.08119,0,0,1,2.01953-.9795,8.99469,8.99469,0,0,1,2.5-.33984A5.21151,5.21151,0,0,1,170.47132,20.17978Zm-2.28027,7.55957a2.33988,2.33988,0,0,0,1.03027-1.22949V25.26963h-2.58008q-2.16065,0-2.16015,1.41992a1.27409,1.27409,0,0,0,.54,1.08008,2.47747,2.47747,0,0,0,1.5.40039A3.22232,3.22232,0,0,0,168.19105,27.73935Z"/>
      <path class="cls-1" d="M185.84144,19.17v9.05957q0,5.63964-5.75977,5.63965a10.70647,10.70647,0,0,1-2.9209-.38965,6.18777,6.18777,0,0,1-2.27929-1.12989l1.12012-1.87988a5.34482,5.34482,0,0,0,1.76953.92969,6.93534,6.93534,0,0,0,2.16992.35059,3.58317,3.58317,0,0,0,2.58008-.80079,3.26687,3.26687,0,0,0,.82031-2.43945v-.56055a4.11514,4.11514,0,0,1-1.56055,1.06055,5.48948,5.48948,0,0,1-2.01953.35938,5.79029,5.79029,0,0,1-2.75-.64942,4.88323,4.88323,0,0,1-1.94043-1.83008,5.1296,5.1296,0,0,1-.71-2.70019,5.07673,5.07673,0,0,1,.71-2.68945,4.83588,4.83588,0,0,1,1.94043-1.81055,5.866,5.866,0,0,1,2.75-.63965,5.6371,5.6371,0,0,1,2.10938.37988,3.8845,3.8845,0,0,1,1.59082,1.16016V19.17Zm-3.37012,7.22949a2.88514,2.88514,0,0,0,.91016-2.21,2.83111,2.83111,0,0,0-.91016-2.17969,3.67935,3.67935,0,0,0-4.67969,0,2.82777,2.82777,0,0,0-.91015,2.17969,2.88174,2.88174,0,0,0,.91015,2.21,3.64353,3.64353,0,0,0,4.67969,0Z"/>
      <path class="cls-1" d="M199.34046,25.30967h-8.37988a2.903,2.903,0,0,0,1.15039,1.87011,3.76859,3.76859,0,0,0,2.30957.68946,3.89152,3.89152,0,0,0,2.90039-1.15918l1.33984,1.54a4.509,4.509,0,0,1-1.82031,1.2998,7.22,7.22,0,0,1-5.58008-.25977,5.04553,5.04553,0,0,1-2.06933-1.95019,5.49939,5.49939,0,0,1-.73047-2.83008,5.58894,5.58894,0,0,1,.71-2.81055,5.03576,5.03576,0,0,1,1.9707-1.94921,5.74461,5.74461,0,0,1,2.83985-.7002,5.6046,5.6046,0,0,1,2.79.68945,4.89347,4.89347,0,0,1,1.91992,1.94043,5.88212,5.88212,0,0,1,.68945,2.88965C199.3805,24.74326,199.36781,24.98935,199.34046,25.30967Zm-7.38965-3.54981a2.98634,2.98634,0,0,0-1.00976,1.88965h6.05957a2.95223,2.95223,0,0,0-.97949-1.87988,3.25451,3.25451,0,0,0-4.07032-.00977Z"/>
    </g>
  </g>
</svg>
